<?xml version="1.0" encoding="UTF-8"?>
<!-- Generator: visioncortex VTracer 0.6.3 -->
<svg version="1.1" xmlns="http://www.w3.org/2000/svg" width="1178" height="1280">
<path d="M0 0 C19.4 10.09 24.67 31.09 31.06 50.43 C31.81 52.7 32.58 54.98 33.34 57.26 C37.92 70.96 42.25 84.81 44.88 99.03 C45.02 99.77 45.17 100.5 45.31 101.27 C45.62 102.86 45.92 104.46 46.22 106.06 C46.62 108.21 47.04 110.35 47.46 112.48 C49.38 122.25 50.78 132.01 51.88 141.9 C51.96 142.66 52.05 143.42 52.14 144.2 C53.62 157.42 54.57 170.59 54.75 183.9 C54.77 184.79 54.78 185.68 54.8 186.59 C54.89 192.7 54.85 198.8 54.75 204.9 C54.75 205.68 54.74 206.46 54.73 207.26 C54.12 256.97 43.77 307.94 24.75 353.9 C24.43 354.7 24.1 355.5 23.76 356.32 C19.17 367.44 14.23 378.3 8.72 388.99 C7.74 390.92 6.8 392.86 5.86 394.81 C1.18 404.52 -4.18 413.7 -9.93 422.81 C-11.12 424.7 -12.29 426.59 -13.46 428.48 C-22.09 442.27 -31.92 455.34 -42.25 467.9 C-42.93 468.75 -43.6 469.61 -44.3 470.48 C-49.43 476.87 -54.86 482.9 -60.45 488.88 C-62.76 491.36 -64.99 493.89 -67.18 496.46 C-69.65 499.32 -72.24 501.61 -75.25 503.9 C-76.93 505.55 -78.59 507.22 -80.25 508.9 C-101.03 529.99 -124.96 548.47 -150.25 563.9 C-150.79 564.24 -151.34 564.57 -151.91 564.92 C-156.33 567.62 -160.78 570.27 -165.25 572.9 C-165.85 573.26 -166.45 573.62 -167.08 573.99 C-192.89 589.23 -220.66 600.98 -249.25 609.9 C-250.14 610.19 -251.04 610.47 -251.97 610.77 C-293.36 623.86 -337.17 630.16 -380.56 630.09 C-381.34 630.09 -382.13 630.09 -382.94 630.09 C-413.2 630.01 -444.53 627.48 -474.06 620.46 C-474.8 620.3 -475.55 620.13 -476.31 619.95 C-485.38 617.56 -492.78 610.81 -497.47 602.82 C-501.91 594.24 -502.46 586.26 -499.81 576.9 C-496.41 567.69 -490.55 561.76 -481.87 557.34 C-471.11 552.43 -461.53 553.72 -450.12 555.84 C-448.56 556.11 -448.56 556.11 -446.97 556.39 C-439.39 557.76 -439.39 557.76 -438.25 558.9 C-437.09 558.9 -435.94 558.9 -434.75 558.9 C-433.59 558.9 -432.44 558.9 -431.25 558.9 C-430.92 559.23 -430.59 559.56 -430.25 559.9 C-427.82 560.12 -425.42 560.28 -423 560.4 C-421.66 560.47 -420.32 560.55 -418.98 560.62 C-418.24 560.66 -417.49 560.7 -416.73 560.74 C-414.97 560.86 -413.22 560.99 -411.47 561.15 C-401.72 562 -392.02 562.14 -382.25 562.15 C-380.93 562.15 -380.93 562.15 -379.59 562.16 C-363.63 562.14 -348.07 561.06 -332.25 558.9 C-331.18 558.77 -330.11 558.63 -329.01 558.5 C-315.65 556.81 -302.62 554.22 -289.56 550.96 C-288.9 550.8 -288.24 550.64 -287.57 550.47 C-266.78 545.27 -246.72 537.8 -227.25 528.9 C-226.43 528.53 -225.61 528.16 -224.77 527.78 C-200.32 516.59 -177.36 502.59 -156.25 485.9 C-155.64 485.42 -155.03 484.95 -154.41 484.46 C-145.49 477.41 -136.97 470.06 -128.71 462.26 C-126.47 460.18 -124.17 458.17 -121.87 456.15 C-118.36 453 -115.19 449.73 -112.15 446.12 C-110.24 443.89 -108.25 441.73 -106.25 439.58 C-100.96 433.89 -95.97 428.06 -91.25 421.9 C-90.53 420.97 -89.81 420.03 -89.07 419.07 C-66.24 388.98 -45.9 354.98 -34.25 318.9 C-33.65 317.18 -33.05 315.45 -32.46 313.73 C-24.2 289.44 -18.02 264.02 -15.51 238.46 C-15.25 235.98 -14.95 233.52 -14.63 231.05 C-10.95 200.34 -12.91 169.11 -16.64 138.52 C-16.97 135.7 -17.25 132.95 -17.24 130.11 C-17.25 127.11 -18.23 124.71 -19.25 121.9 C-20.26 118.32 -20.57 114.82 -20.87 111.12 C-21.13 108.91 -21.13 108.91 -22.16 107.15 C-23.81 103.75 -24.44 100.15 -25.25 96.46 C-26.28 91.76 -27.36 87.35 -29.25 82.9 C-29.59 81.57 -29.92 80.24 -30.25 78.9 C-34.03 66.94 -38.2 55.11 -43.45 43.71 C-46.59 36.59 -46.35 27.91 -43.68 20.65 C-38.83 10.24 -32.1 4.71 -21.92 -0.23 C-15.14 -2.44 -6.74 -2.28 0 0 Z M-44.25 25.9 C-43.25 29.9 -43.25 29.9 -43.25 29.9 Z M-15.25 139.9 C-14.25 143.9 -14.25 143.9 -14.25 143.9 Z M-14.25 146.9 C-13.25 150.9 -13.25 150.9 -13.25 150.9 Z M-13.25 156.9 C-12.25 160.9 -12.25 160.9 -12.25 160.9 Z M-12.25 168.9 C-11.25 172.9 -11.25 172.9 -11.25 172.9 Z M-12.25 213.9 C-12.25 215.55 -12.25 217.2 -12.25 218.9 C-11.92 218.9 -11.59 218.9 -11.25 218.9 C-11.25 217.25 -11.25 215.6 -11.25 213.9 C-11.58 213.9 -11.91 213.9 -12.25 213.9 Z M-13.25 225.9 C-13.25 227.55 -13.25 229.2 -13.25 230.9 C-12.92 230.9 -12.59 230.9 -12.25 230.9 C-12.25 229.25 -12.25 227.6 -12.25 225.9 C-12.58 225.9 -12.91 225.9 -13.25 225.9 Z M-14.25 235.9 C-13.25 239.9 -13.25 239.9 -13.25 239.9 Z M-15.25 242.9 C-15.25 244.55 -15.25 246.2 -15.25 247.9 C-14.92 247.9 -14.59 247.9 -14.25 247.9 C-14.25 246.25 -14.25 244.6 -14.25 242.9 C-14.58 242.9 -14.91 242.9 -15.25 242.9 Z M-21.25 276.9 C-20.25 278.9 -20.25 278.9 -20.25 278.9 Z M-22.25 281.9 C-21.25 283.9 -21.25 283.9 -21.25 283.9 Z M-29.25 305.9 C-28.25 307.9 -28.25 307.9 -28.25 307.9 Z M-30.25 308.9 C-29.25 310.9 -29.25 310.9 -29.25 310.9 Z M-36.25 325.9 C-35.25 327.9 -35.25 327.9 -35.25 327.9 Z M-332.25 559.9 C-332.25 560.23 -332.25 560.56 -332.25 560.9 C-330.6 560.9 -328.95 560.9 -327.25 560.9 C-327.25 560.57 -327.25 560.24 -327.25 559.9 C-328.9 559.9 -330.55 559.9 -332.25 559.9 Z M-405.25 562.9 C-401.25 563.9 -401.25 563.9 -401.25 563.9 Z M-361.25 562.9 C-357.25 563.9 -357.25 563.9 -357.25 563.9 Z " fill="#3A3653" transform="translate(966.24609375,243.09765625)"/>
<path d="M0 0 C8.76 4.62 14.91 10.78 18.38 20.12 C21.22 30.33 20.35 39.73 15.19 49.06 C12.27 52.83 9.25 56.5 6.22 60.17 C-3.08 71.59 -11.12 83.82 -19.19 96.12 C-19.79 97.04 -19.79 97.04 -20.4 97.97 C-48.51 140.77 -64.98 191.54 -72 241.94 C-72.11 242.69 -72.21 243.45 -72.32 244.23 C-74.49 260.02 -75.42 275.69 -75.44 291.62 C-75.44 292.9 -75.44 292.9 -75.44 294.2 C-75.43 310.34 -74.35 326.11 -72.19 342.12 C-72.04 343.21 -71.9 344.3 -71.75 345.43 C-67.44 376.99 -58.8 407.86 -46.19 437.12 C-45.66 438.38 -45.14 439.64 -44.62 440.9 C-29.57 476.73 -7.68 509.71 17.93 538.81 C20.31 541.52 22.57 544.31 24.81 547.12 C26.46 548.81 28.13 550.48 29.81 552.12 C30.49 552.81 31.16 553.49 31.85 554.2 C36.66 559.07 41.6 563.68 46.81 568.12 C47.91 569.08 49.01 570.03 50.11 570.98 C57.78 577.62 57.78 577.62 65.75 583.88 C73.23 589.62 78.7 596.45 81.56 605.5 C82.43 614.58 82.45 623.25 76.79 630.84 C69.67 638.91 63.4 644.48 52.43 645.41 C34.13 645.85 24.12 636.32 11.3 624.43 C9.15 622.43 6.97 620.49 4.75 618.56 C3.79 617.72 3.79 617.72 2.8 616.86 C1.45 615.68 0.09 614.5 -1.27 613.33 C-7.19 608.12 -12.79 602.63 -18.38 597.06 C-19.52 595.93 -19.52 595.93 -20.68 594.77 C-25.39 590.05 -29.86 585.2 -34.19 580.12 C-34.65 579.59 -35.11 579.06 -35.58 578.51 C-56.55 554.2 -76.98 527.45 -91.06 498.5 C-91.74 497.12 -92.42 495.74 -93.1 494.36 C-93.44 493.67 -93.79 492.97 -94.14 492.25 C-95.19 490.11 -96.26 487.98 -97.34 485.86 C-100.79 479.02 -104.22 472.19 -107.19 465.12 C-107.57 464.21 -107.96 463.29 -108.36 462.34 C-109.21 460.31 -110.05 458.27 -110.89 456.23 C-111.75 454.18 -112.62 452.12 -113.51 450.08 C-116 444.31 -118.01 438.64 -119.56 432.55 C-120.3 429.69 -121.21 426.91 -122.19 424.12 C-122.52 424.12 -122.85 424.12 -123.19 424.12 C-123.45 422.94 -123.72 421.76 -123.99 420.55 C-124.35 418.99 -124.71 417.43 -125.06 415.88 C-125.24 415.1 -125.41 414.32 -125.59 413.52 C-125.85 412.39 -125.85 412.39 -126.12 411.23 C-126.27 410.54 -126.43 409.85 -126.59 409.14 C-127.14 407.06 -127.14 407.06 -128.25 405.03 C-129.43 402.63 -129.19 400.77 -129.19 398.12 C-130.18 396.64 -130.18 396.64 -131.19 395.12 C-131.59 393.03 -131.91 390.93 -132.19 388.81 C-132.77 384.34 -133.73 380.39 -135.19 376.12 C-135.31 373.25 -135.31 373.25 -135.19 371.12 C-135.52 371.12 -135.85 371.12 -136.19 371.12 C-140.62 345.29 -142.78 319.78 -142.69 293.56 C-142.69 292.13 -142.68 290.7 -142.68 289.27 C-142.58 248.81 -138.59 207.83 -125.28 169.37 C-124.43 166.84 -123.69 164.38 -123.08 161.79 C-121.97 157.25 -120.49 152.9 -118.94 148.5 C-118.63 147.63 -118.32 146.75 -118.01 145.85 C-115.78 139.61 -113.34 133.52 -110.64 127.46 C-109.52 124.89 -108.49 122.33 -107.48 119.72 C-104.86 113.11 -101.75 106.74 -98.64 100.35 C-97.62 98.24 -96.6 96.12 -95.59 94.01 C-94.93 92.65 -94.28 91.3 -93.62 89.95 C-93.32 89.32 -93.02 88.69 -92.71 88.05 C-91.13 84.8 -89.4 81.97 -87.19 79.12 C-86.55 77.92 -85.94 76.7 -85.36 75.46 C-83.03 70.67 -80.24 66.23 -77.38 61.75 C-76.84 60.91 -76.3 60.06 -75.75 59.2 C-72.63 54.31 -69.46 49.47 -66.08 44.76 C-64.52 42.59 -63 40.41 -61.48 38.21 C-55.89 30.11 -50.13 22.32 -43.63 14.93 C-42.16 13.25 -40.73 11.53 -39.37 9.76 C-29.89 -2.38 -13.86 -6.41 0 0 Z M-122.19 160.12 C-121.19 162.12 -121.19 162.12 -121.19 162.12 Z M-128.19 181.12 C-127.19 183.12 -127.19 183.12 -127.19 183.12 Z M-129.19 185.12 C-128.19 187.12 -128.19 187.12 -128.19 187.12 Z M-134.19 208.12 C-133.19 210.12 -133.19 210.12 -133.19 210.12 Z M-135.19 213.12 C-134.19 215.12 -134.19 215.12 -134.19 215.12 Z M-136.19 218.12 C-135.19 221.12 -135.19 221.12 -135.19 221.12 Z M-137.19 224.12 C-136.19 227.12 -136.19 227.12 -136.19 227.12 Z M-139.19 241.12 C-138.19 243.12 -138.19 243.12 -138.19 243.12 Z M-140.19 250.12 C-139.19 252.12 -139.19 252.12 -139.19 252.12 Z M-141.19 260.12 C-140.19 264.12 -140.19 264.12 -140.19 264.12 Z M-141.19 321.12 C-140.19 325.12 -140.19 325.12 -140.19 325.12 Z M-140.19 333.12 C-139.19 335.12 -139.19 335.12 -139.19 335.12 Z M-137.19 358.12 C-136.19 361.12 -136.19 361.12 -136.19 361.12 Z M-136.19 364.12 C-135.19 366.12 -135.19 366.12 -135.19 366.12 Z " fill="#3A3653" transform="translate(290.1875,143.875)"/>
<path d="M0 0 C3.93 0.04 7.87 0.06 11.8 0.08 C16.54 0.1 21.28 0.13 26.02 0.16 C26.91 0.17 27.79 0.17 28.7 0.18 C31.2 0.2 33.69 0.23 36.19 0.26 C37.27 0.27 37.27 0.27 38.38 0.28 C50.32 0.45 50.32 0.45 52.33 2.47 C53.32 2.47 54.31 2.47 55.33 2.47 C56.32 2.47 57.31 2.47 58.33 2.47 C58.66 2.8 58.99 3.13 59.33 3.47 C61.33 3.68 63.33 3.84 65.33 3.97 C71.22 4.36 71.22 4.36 72.33 5.47 C74.16 5.68 76 5.84 77.83 5.97 C83.22 6.36 83.22 6.36 84.33 7.47 C86.23 7.7 88.13 7.92 90.03 8.09 C92.33 8.47 92.33 8.47 95 9.38 C100.07 11.04 105.29 11.95 110.52 12.97 C111.34 13.14 112.15 13.3 113 13.47 C113.73 13.61 114.47 13.76 115.23 13.91 C117.46 14.5 119.29 15.4 121.33 16.47 C123.03 16.99 124.74 17.46 126.46 17.91 C134.3 19.99 141.92 22.2 149.43 25.3 C152.38 26.49 155.35 27.59 158.33 28.69 C164.53 30.97 170.49 33.38 176.33 36.47 C177.1 36.78 177.88 37.09 178.67 37.41 C181.59 38.57 184.39 39.89 187.22 41.26 C188.32 41.79 189.42 42.32 190.56 42.86 C191.7 43.41 192.84 43.97 194.02 44.53 C195.17 45.09 196.33 45.64 197.51 46.21 C205.81 50.21 205.81 50.21 208.33 51.47 C208.33 52.13 208.33 52.79 208.33 53.47 C209.05 53.58 209.77 53.68 210.51 53.79 C215.99 55.11 220.58 58.54 225.33 61.47 C226.08 61.93 226.84 62.39 227.61 62.86 C230.11 64.39 232.6 65.93 235.08 67.47 C235.87 67.96 236.66 68.44 237.48 68.94 C247.77 75.4 256.47 82.26 259.33 94.47 C260.49 105.05 260 114.14 253.57 122.86 C248.57 128.95 243.16 133 235.33 134.47 C232.73 134.62 230.18 134.7 227.58 134.72 C226.56 134.75 226.56 134.75 225.53 134.78 C216.37 134.85 209.79 130.76 202.33 125.85 C194.45 120.76 186.47 115.99 178.24 111.51 C176.34 110.48 174.45 109.43 172.57 108.38 C163.72 103.52 154.68 99.28 145.33 95.47 C144.4 95.09 143.48 94.71 142.52 94.32 C101.17 77.56 57.08 67.12 12.33 66.47 C11.43 66.46 10.54 66.44 9.61 66.42 C3.18 66.33 -3.24 66.36 -9.67 66.47 C-10.54 66.48 -11.41 66.5 -12.31 66.51 C-52.72 67.25 -92.8 76.49 -130.56 90.54 C-131.55 90.9 -132.54 91.27 -133.56 91.65 C-134.42 91.98 -135.29 92.3 -136.19 92.64 C-144.76 95.5 -154.01 95.13 -162.17 91.16 C-163.69 90.29 -165.19 89.4 -166.67 88.47 C-167.56 87.91 -168.44 87.36 -169.36 86.78 C-173.03 83.11 -175.88 78.85 -178.67 74.47 C-179.06 73.89 -179.45 73.3 -179.85 72.7 C-182.32 65.98 -181.73 56.14 -179.76 49.31 C-178.57 46.84 -177.28 44.69 -175.67 42.47 C-175.23 41.83 -174.8 41.19 -174.35 40.53 C-168.09 32.27 -157.93 28.45 -148.48 25.03 C-147.44 24.65 -146.39 24.27 -145.32 23.87 C-97.93 6.75 -50.21 -0.65 0 0 Z M-42.67 1.47 C-42.67 1.8 -42.67 2.13 -42.67 2.47 C-40.69 2.47 -38.71 2.47 -36.67 2.47 C-36.67 2.14 -36.67 1.81 -36.67 1.47 C-38.65 1.47 -40.63 1.47 -42.67 1.47 Z M38.33 1.47 C38.33 1.8 38.33 2.13 38.33 2.47 C40.31 2.47 42.29 2.47 44.33 2.47 C44.33 2.14 44.33 1.81 44.33 1.47 C42.35 1.47 40.37 1.47 38.33 1.47 Z " fill="#3A3653" transform="translate(583.66845703125,-0.47027587890625)"/>
<path d="M0 0 C0 0.66 0 1.32 0 2 C0.6 2.12 1.19 2.23 1.8 2.35 C5.4 3.41 7.92 6.01 10.69 8.44 C11.62 9.25 11.62 9.25 12.57 10.08 C30.29 25.77 40.31 43.95 45 67 C45.2 67.93 45.39 68.87 45.59 69.83 C48.96 96.07 43.21 122.14 27.12 143.34 C9.89 164.89 -11.59 178.25 -39 182 C-65.14 184.45 -90.73 178.7 -111.43 162.14 C-112.7 161.08 -112.7 161.08 -114 160 C-115.09 159.14 -115.09 159.14 -116.2 158.26 C-124.49 151.44 -131.75 142.37 -137 133 C-137 132.34 -137 131.68 -137 131 C-137.66 131 -138.32 131 -139 131 C-140.15 128.4 -141.29 125.79 -142.44 123.19 C-142.76 122.45 -143.09 121.71 -143.42 120.95 C-143.74 120.24 -144.05 119.53 -144.37 118.79 C-144.66 118.14 -144.95 117.48 -145.24 116.81 C-149.58 106.43 -150.48 95.68 -150.38 84.56 C-150.39 83.36 -150.4 82.15 -150.41 80.9 C-150.36 65.9 -146.55 53.31 -140 40 C-139.43 38.81 -138.85 37.63 -138.26 36.4 C-125.93 12.94 -103.77 -2.89 -79 -11 C-77.13 -11.62 -77.13 -11.62 -75.23 -12.26 C-48.99 -19.96 -23.13 -13.09 0 0 Z M-63 -14 C-63 -13.67 -63 -13.34 -63 -13 C-60.36 -13 -57.72 -13 -55 -13 C-55 -13.33 -55 -13.66 -55 -14 C-57.64 -14 -60.28 -14 -63 -14 Z M-47 -14 C-47 -13.67 -47 -13.34 -47 -13 C-44.69 -13 -42.38 -13 -40 -13 C-40 -13.33 -40 -13.66 -40 -14 C-42.31 -14 -44.62 -14 -47 -14 Z M-82.19 53.99 C-89.9 62.54 -95.16 74.42 -95 86 C-93.88 97.2 -88.79 108.21 -80.81 116.19 C-70.66 122.73 -63.23 125.19 -51.25 125.31 C-50.3 125.34 -49.35 125.37 -48.37 125.4 C-37.03 125.5 -28.92 120.64 -20.86 112.96 C-12.13 103.81 -9.7 93.9 -9.77 81.5 C-10.19 75.08 -11.97 69.08 -14 63 C-14.66 63 -15.32 63 -16 63 C-16.31 61.98 -16.31 61.98 -16.62 60.94 C-20.63 52.38 -27.92 47.36 -36.59 44 C-39.04 43.21 -41.49 42.57 -44 42 C-45.24 41.71 -46.48 41.42 -47.75 41.12 C-60.13 39.92 -73.27 45.69 -82.19 53.99 Z M-146 56 C-145 58 -145 58 -145 58 Z M-147 59 C-146 61 -146 61 -146 61 Z M-149 70 C-148 72 -148 72 -148 72 Z M-149 97 C-148 99 -148 99 -148 99 Z M-58 126 C-58 126.33 -58 126.66 -58 127 C-53.38 127 -48.76 127 -44 127 C-44 126.67 -44 126.34 -44 126 C-48.62 126 -53.24 126 -58 126 Z " fill="#3A3653" transform="translate(637,352)"/>
<path d="M0 0 C3.65 -0 7.3 -0.02 10.96 -0.04 C13.32 -0.04 15.68 -0.04 18.04 -0.05 C19.11 -0.05 20.18 -0.06 21.29 -0.07 C41.61 -0.01 60.98 7.09 75.51 21.44 C88.16 34.51 92.34 47.89 92.41 65.81 C92.45 67.64 92.45 67.64 92.48 69.51 C92.55 85.47 87.74 99.22 76.58 110.87 C52.46 133.98 23.48 132.44 -7.84 132.19 C-8.17 148.03 -8.5 163.87 -8.84 180.19 C-15.89 180.25 -22.94 180.31 -30.21 180.37 C-32.44 180.4 -34.66 180.43 -36.96 180.46 C-38.72 180.46 -40.48 180.47 -42.23 180.48 C-43.15 180.49 -44.07 180.51 -45.02 180.52 C-45.89 180.53 -46.76 180.53 -47.66 180.53 C-48.42 180.53 -49.18 180.54 -49.96 180.55 C-50.58 180.43 -51.2 180.31 -51.84 180.19 C-54.29 176.5 -54.09 174.68 -54.1 170.28 C-54.11 169.57 -54.11 168.86 -54.12 168.13 C-54.13 165.76 -54.13 163.39 -54.13 161.01 C-54.13 159.31 -54.14 157.61 -54.15 155.91 C-54.16 151.29 -54.17 146.67 -54.17 142.05 C-54.17 138.19 -54.18 134.34 -54.19 130.48 C-54.2 121.39 -54.21 112.3 -54.21 103.21 C-54.2 93.82 -54.23 84.43 -54.26 75.05 C-54.28 66.99 -54.29 58.94 -54.29 50.89 C-54.29 46.08 -54.3 41.26 -54.32 36.45 C-54.34 31.93 -54.34 27.4 -54.32 22.88 C-54.32 21.21 -54.33 19.55 -54.34 17.89 C-54.35 15.62 -54.35 13.36 -54.33 11.09 C-54.33 9.82 -54.33 8.56 -54.33 7.25 C-53.84 4.19 -53.84 4.19 -51.95 2.28 C-49.47 0.99 -47.76 0.76 -44.98 0.68 C-43.52 0.63 -43.52 0.63 -42.04 0.58 C-40.99 0.55 -39.94 0.53 -38.86 0.51 C-37.21 0.46 -37.21 0.46 -35.52 0.41 C-23.68 0.09 -11.84 -0 0 0 Z M-24.84 1.19 C-24.84 1.52 -24.84 1.85 -24.84 2.19 C-22.2 2.19 -19.56 2.19 -16.84 2.19 C-16.84 1.86 -16.84 1.53 -16.84 1.19 C-19.48 1.19 -22.12 1.19 -24.84 1.19 Z M-49.84 2.19 C-49.84 2.52 -49.84 2.85 -49.84 3.19 C-47.2 3.19 -44.56 3.19 -41.84 3.19 C-41.84 2.86 -41.84 2.53 -41.84 2.19 C-44.48 2.19 -47.12 2.19 -49.84 2.19 Z M-7.84 40.19 C-9.07 42.65 -8.96 44.25 -8.95 47 C-8.95 48 -8.95 49 -8.95 50.04 C-8.94 51.12 -8.94 52.2 -8.93 53.32 C-8.93 54.43 -8.93 55.53 -8.93 56.67 C-8.92 60.22 -8.91 63.76 -8.9 67.31 C-8.89 69.71 -8.89 72.11 -8.88 74.51 C-8.87 80.4 -8.86 86.29 -8.84 92.19 C-3.87 92.26 1.09 92.31 6.05 92.35 C7.74 92.37 9.42 92.39 11.1 92.41 C27.69 92.84 27.69 92.84 41.73 84.73 C47.71 78.3 47.53 71.34 47.37 62.96 C47.01 56.43 45.94 51.48 41.1 46.87 C30.91 39.53 21.11 39.68 9.04 39.94 C7.4 39.96 5.76 39.97 4.12 39.99 C0.13 40.03 -3.85 40.1 -7.84 40.19 Z M48.16 63.19 C48.16 65.83 48.16 68.47 48.16 71.19 C48.49 71.19 48.82 71.19 49.16 71.19 C49.16 68.55 49.16 65.91 49.16 63.19 C48.83 63.19 48.5 63.19 48.16 63.19 Z M47.16 74.19 C48.16 76.19 48.16 76.19 48.16 76.19 Z M-7.84 93.19 C-7.84 93.52 -7.84 93.85 -7.84 94.19 C1.4 94.19 10.64 94.19 20.16 94.19 C20.16 93.86 20.16 93.53 20.16 93.19 C10.92 93.19 1.68 93.19 -7.84 93.19 Z " fill="#3A3653" transform="translate(668.835205078125,1038.814697265625)"/>
<path d="M0 0 C6.36 4.61 12.04 9.75 13.68 17.71 C15.7 32.16 9.81 42.91 3 55.31 C2.32 56.56 1.65 57.8 0.98 59.05 C-1.01 62.7 -3 66.35 -5 70 C-6.02 71.86 -7.04 73.73 -8.05 75.59 C-9.47 78.18 -10.89 80.77 -12.3 83.36 C-16.73 91.45 -21.05 99.6 -25.38 107.75 C-35.36 126.58 -45.4 145.39 -55.67 164.07 C-58.11 168.51 -60.51 172.96 -62.84 177.46 C-70.21 191.57 -77.36 202.21 -93 208 C-111.44 211.99 -125.55 206.13 -141.31 197.47 C-146.08 194.87 -150.92 192.38 -155.75 189.88 C-157.69 188.86 -159.64 187.84 -161.58 186.82 C-164.89 185.09 -168.21 183.38 -171.55 181.71 C-181.21 176.81 -188.47 171.96 -193.11 161.8 C-195.38 154.63 -195.07 147.47 -191.94 140.62 C-187.77 133.41 -182.08 127.54 -174 125 C-166.34 123.48 -160.15 123.81 -153 127 C-153 127.66 -153 128.32 -153 129 C-152.34 129.08 -151.68 129.17 -151 129.25 C-146.99 130.25 -143.59 132.04 -139.94 133.94 C-139.23 134.3 -138.52 134.66 -137.79 135.03 C-136.45 135.72 -135.1 136.41 -133.75 137.1 C-131.84 138.08 -129.92 139.05 -128 140 C-128 140.66 -128 141.32 -128 142 C-127.34 142.08 -126.68 142.16 -126 142.25 C-122.66 143.09 -119.98 144.44 -116.96 146.06 C-114.99 147.01 -113.14 147.54 -111 148 C-110.73 147.13 -110.46 146.26 -110.19 145.36 C-109.04 142.11 -107.67 139.28 -106.02 136.25 C-105.44 135.18 -104.85 134.1 -104.25 132.99 C-103.63 131.86 -103.01 130.73 -102.38 129.56 C-101.73 128.38 -101.09 127.21 -100.45 126.03 C-99.2 123.72 -97.94 121.41 -96.69 119.1 C-94.65 115.35 -92.63 111.58 -90.62 107.81 C-90.02 106.67 -89.41 105.53 -88.79 104.36 C-87.54 102.02 -86.3 99.67 -85.06 97.33 C-81.23 90.09 -77.31 82.91 -73.23 75.8 C-71.24 72.31 -69.37 68.77 -67.58 65.16 C-64.99 59.92 -62.2 54.81 -59.38 49.69 C-54.75 41.26 -50.22 32.78 -45.83 24.23 C-34.04 1.45 -34.04 1.45 -20.44 -3.34 C-12.93 -5.37 -6.78 -3.68 0 0 Z M-193 146 C-192 148 -192 148 -192 148 Z " fill="#3A3653" transform="translate(609,109)"/>
<path d="M0 0 C0.6 0.29 1.21 0.58 1.83 0.87 C5.25 2.52 8.64 4.23 12 6 C12 6.66 12 7.32 12 8 C13.09 8.17 13.09 8.17 14.19 8.35 C17.11 9.02 19.28 10.02 21.91 11.43 C22.82 11.92 23.72 12.4 24.66 12.9 C25.6 13.41 26.53 13.91 27.5 14.44 C29.36 15.44 31.23 16.44 33.09 17.43 C33.92 17.88 34.74 18.32 35.58 18.78 C38.01 20.01 40.46 21.03 43 22 C43 22.66 43 23.32 43 24 C43.66 24.04 44.32 24.08 45 24.12 C51.91 26.14 58.18 31.97 62 38 C65.76 46.67 66.05 54.62 63.09 63.54 C60.05 70.39 54.72 75.16 47.9 78.13 C33.69 82.38 23.24 76.59 11 70 C9.28 69.1 7.57 68.21 5.85 67.32 C2.65 65.65 -0.55 63.97 -3.73 62.26 C-7.78 60.1 -11.88 58.04 -16 56 C-24.23 70.57 -32.06 85.35 -39.89 100.13 C-45.51 110.75 -51.16 121.34 -56.94 131.88 C-60.5 138.39 -64.04 144.92 -67.5 151.5 C-71.94 159.93 -76.48 168.31 -81.08 176.66 C-82.91 179.99 -84.7 183.34 -86.45 186.71 C-91.19 195.76 -95.7 202.31 -105.38 206.44 C-114.5 207.85 -123.21 207.83 -131.12 202.59 C-137.43 197.53 -142.12 191.64 -143.65 183.59 C-144.25 173.69 -141.17 166.76 -136.36 158.38 C-134.27 154.72 -132.29 151 -130.3 147.29 C-128.61 144.17 -126.92 141.05 -125.22 137.93 C-122.48 132.89 -119.78 127.83 -117.12 122.75 C-112.86 114.6 -108.53 106.48 -104.19 98.38 C-103.87 97.78 -103.55 97.18 -103.22 96.56 C-93.74 78.85 -93.74 78.85 -88.69 70.44 C-85.52 65.05 -82.73 59.53 -79.98 53.92 C-77.47 48.85 -74.7 44 -71.79 39.14 C-69.67 35.41 -67.77 31.6 -65.88 27.75 C-60.39 16.65 -60.39 16.65 -57 12 C-56.5 11.28 -56 10.55 -55.48 9.81 C-41.56 -8.12 -19.1 -9.19 0 0 Z " fill="#3A3653" transform="translate(690,559)"/>
<path d="M0 0 C0.97 -0 1.95 -0.01 2.95 -0.01 C5.59 -0.02 8.23 -0.01 10.87 0.01 C11.61 0.01 12.35 0.01 13.11 0.01 C16.81 0.06 19.39 0.41 22.56 2.31 C23.76 2.66 24.96 3.01 26.19 3.38 C32.08 5.54 36.19 9.96 40.56 14.31 C41.15 14.87 41.75 15.43 42.36 16 C51.87 25.79 52.47 39.69 53.1 52.54 C53.16 53.82 53.16 53.82 53.23 55.13 C53.37 57.88 53.5 60.63 53.62 63.38 C53.67 64.31 53.71 65.25 53.76 66.21 C54.27 77.3 54.77 88.4 54.88 99.5 C54.9 100.88 54.9 100.88 54.93 102.3 C54.92 110.73 52.23 116.27 46.54 122.52 C40.27 128.22 33 129.69 24.76 129.58 C16.5 128.89 10.78 125.43 5.25 119.38 C-1.5 111.1 -2.68 102.02 -3.06 91.62 C-3.1 90.74 -3.14 89.85 -3.18 88.93 C-3.57 78.73 -3.53 68.52 -3.44 58.31 C-42.84 58.01 -82.23 59.1 -121.6 60.65 C-128.21 60.91 -134.82 61.12 -141.44 61.31 C-143.09 61.36 -143.09 61.36 -144.77 61.42 C-148.01 61.51 -151.25 61.57 -154.49 61.62 C-155.45 61.65 -156.41 61.68 -157.39 61.71 C-165.24 61.78 -171.85 59.92 -178.24 55.27 C-184.34 48.95 -188.51 43.3 -188.88 34.31 C-188.51 26.45 -185.99 19.03 -180.44 13.31 C-173.7 8 -167.72 5.08 -159.09 4.79 C-158.32 4.75 -157.56 4.72 -156.77 4.68 C-154.12 4.57 -151.46 4.47 -148.81 4.38 C-146.85 4.3 -144.9 4.22 -142.94 4.14 C-137.62 3.93 -132.29 3.74 -126.97 3.55 C-122.25 3.38 -117.54 3.21 -112.82 3.03 C-31.4 0.03 -31.4 0.03 0 0 Z M-29.44 1.31 C-29.44 1.64 -29.44 1.97 -29.44 2.31 C-24.49 2.31 -19.54 2.31 -14.44 2.31 C-14.44 1.98 -14.44 1.65 -14.44 1.31 C-19.39 1.31 -24.34 1.31 -29.44 1.31 Z M-57.44 2.31 C-57.44 2.64 -57.44 2.97 -57.44 3.31 C-54.14 3.31 -50.84 3.31 -47.44 3.31 C-47.44 2.98 -47.44 2.65 -47.44 2.31 C-50.74 2.31 -54.04 2.31 -57.44 2.31 Z M-86.44 3.31 C-86.44 3.64 -86.44 3.97 -86.44 4.31 C-83.47 4.31 -80.5 4.31 -77.44 4.31 C-77.44 3.98 -77.44 3.65 -77.44 3.31 C-80.41 3.31 -83.38 3.31 -86.44 3.31 Z M-120.44 4.31 C-120.44 4.64 -120.44 4.97 -120.44 5.31 C-116.15 5.31 -111.86 5.31 -107.44 5.31 C-107.44 4.98 -107.44 4.65 -107.44 4.31 C-111.73 4.31 -116.02 4.31 -120.44 4.31 Z M-149.44 5.31 C-149.44 5.64 -149.44 5.97 -149.44 6.31 C-147.46 6.31 -145.48 6.31 -143.44 6.31 C-143.44 5.98 -143.44 5.65 -143.44 5.31 C-145.42 5.31 -147.4 5.31 -149.44 5.31 Z M-186.44 24.31 C-185.44 26.31 -185.44 26.31 -185.44 26.31 Z M-2.44 66.31 C-2.44 70.93 -2.44 75.55 -2.44 80.31 C-2.11 80.31 -1.78 80.31 -1.44 80.31 C-1.44 75.69 -1.44 71.07 -1.44 66.31 C-1.77 66.31 -2.1 66.31 -2.44 66.31 Z M-1.44 88.31 C-1.44 92.6 -1.44 96.89 -1.44 101.31 C-1.11 101.31 -0.78 101.31 -0.44 101.31 C-0.44 97.02 -0.44 92.73 -0.44 88.31 C-0.77 88.31 -1.1 88.31 -1.44 88.31 Z " fill="#3A3653" transform="translate(478.4375,544.6875)"/>
<path d="M0 0 C6.89 5.33 13.01 11.61 14.8 20.39 C14.94 21.79 15.03 23.19 15.09 24.59 C15.12 25.41 15.16 26.23 15.2 27.07 C15.23 27.95 15.27 28.82 15.3 29.73 C15.37 31.09 15.37 31.09 15.43 32.48 C15.56 35.39 15.68 38.3 15.8 41.21 C15.93 44.1 16.05 47 16.18 49.9 C16.26 51.7 16.34 53.5 16.41 55.3 C16.45 56.13 16.49 56.96 16.52 57.81 C16.55 58.53 16.58 59.24 16.62 59.99 C16.86 63.15 17.33 66.26 17.8 69.39 C18.92 69.34 20.04 69.29 21.19 69.24 C48.71 67.96 76.23 66.86 103.76 65.96 C107.7 65.83 111.64 65.7 115.59 65.57 C153.32 64.28 153.32 64.28 168.32 64.25 C169.26 64.24 170.2 64.24 171.17 64.24 C180.39 64.28 186.79 67.13 193.91 73.18 C199.55 79.02 201.66 85.43 201.89 93.48 C201.46 102.24 199.43 108.24 192.93 114.21 C186.79 119.2 181.07 121.37 173.2 121.68 C172.27 121.71 171.33 121.75 170.37 121.79 C169.32 121.82 168.27 121.86 167.18 121.89 C166 121.94 164.83 121.98 163.61 122.02 C155.98 122.28 148.34 122.45 140.7 122.57 C136.8 122.64 132.89 122.7 128.99 122.77 C127.97 122.79 126.95 122.8 125.9 122.82 C99.23 123.28 72.58 124.29 45.93 125.27 C42.26 125.41 38.58 125.54 34.91 125.68 C32.38 125.77 29.84 125.87 27.31 125.96 C-10.73 127.38 -10.73 127.38 -23.06 116.49 C-26.02 113.58 -28.68 110.7 -31.2 107.39 C-31.2 106.73 -31.2 106.07 -31.2 105.39 C-31.86 105.06 -32.52 104.73 -33.2 104.39 C-36.8 99.06 -37.9 93.74 -38.2 87.39 C-38.53 87.39 -38.86 87.39 -39.2 87.39 C-40.37 70.31 -41.42 53.2 -41.66 36.08 C-41.68 34.64 -41.72 33.2 -41.76 31.76 C-42.08 21.25 -40.52 13.13 -33.16 5.2 C-24.44 -3.08 -10.93 -6.64 0 0 Z M-40.2 42.39 C-40.2 45.69 -40.2 48.99 -40.2 52.39 C-39.87 52.39 -39.54 52.39 -39.2 52.39 C-39.2 49.09 -39.2 45.79 -39.2 42.39 C-39.53 42.39 -39.86 42.39 -40.2 42.39 Z M-39.2 64.39 C-39.2 66.7 -39.2 69.01 -39.2 71.39 C-38.87 71.39 -38.54 71.39 -38.2 71.39 C-38.2 69.08 -38.2 66.77 -38.2 64.39 C-38.53 64.39 -38.86 64.39 -39.2 64.39 Z M153.8 65.39 C153.8 65.72 153.8 66.05 153.8 66.39 C160.07 66.39 166.34 66.39 172.8 66.39 C172.8 66.06 172.8 65.73 172.8 65.39 C166.53 65.39 160.26 65.39 153.8 65.39 Z M125.8 66.39 C125.8 66.72 125.8 67.05 125.8 67.39 C129.76 67.39 133.72 67.39 137.8 67.39 C137.8 67.06 137.8 66.73 137.8 66.39 C133.84 66.39 129.88 66.39 125.8 66.39 Z M97.8 67.39 C97.8 67.72 97.8 68.05 97.8 68.39 C100.77 68.39 103.74 68.39 106.8 68.39 C106.8 68.06 106.8 67.73 106.8 67.39 C103.83 67.39 100.86 67.39 97.8 67.39 Z M62.8 68.39 C62.8 68.72 62.8 69.05 62.8 69.39 C65.11 69.39 67.42 69.39 69.8 69.39 C69.8 69.06 69.8 68.73 69.8 68.39 C67.49 68.39 65.18 68.39 62.8 68.39 Z M33.8 69.39 C33.8 69.72 33.8 70.05 33.8 70.39 C36.11 70.39 38.42 70.39 40.8 70.39 C40.8 70.06 40.8 69.73 40.8 69.39 C38.49 69.39 36.18 69.39 33.8 69.39 Z " fill="#3A3653" transform="translate(678.1953125,200.60546875)"/>
<path d="M0 0 C9.15 6.28 14.02 15.62 19.53 24.98 C21.66 28.57 23.88 32.1 26.11 35.63 C28.96 40.18 31.8 44.74 34.61 49.32 C38.44 55.57 42.34 61.79 46.23 68 C51.26 76.03 56.25 84.07 61.15 92.17 C63.49 96.02 65.88 99.83 68.3 103.63 C71.86 109.2 75.31 114.84 78.73 120.5 C82.87 127.33 87.03 134.13 91.29 140.88 C94.43 145.88 97.51 150.9 100.48 156 C101.12 157.1 101.76 158.2 102.42 159.33 C105.31 165.09 105.13 170.74 105.17 177.07 C105.19 177.92 105.21 178.78 105.23 179.66 C105.3 191.21 100.96 199.68 93.25 208.15 C87.96 213.14 81.65 216.73 75.48 220.5 C70.46 223.57 65.53 226.78 60.61 230 C54.44 234.03 48.27 238.04 42.04 241.96 C40.21 243.13 38.43 244.37 36.67 245.63 C29.83 249.82 22.35 250.24 14.59 248.92 C5.66 246.51 -0.64 239.89 -5.21 232.08 C-8.17 226.11 -8.23 218.82 -6.18 212.55 C-1.84 203.48 3.89 197.82 12.54 192.88 C14.15 191.93 15.75 190.98 17.36 190.03 C18.13 189.57 18.91 189.11 19.71 188.64 C23.69 186.25 27.51 183.64 31.36 181.04 C41.34 174.32 41.34 174.32 43.92 174.32 C42.86 170.91 41.91 168.3 39.92 165.32 C39.92 164.33 39.92 163.34 39.92 162.32 C39.26 162.32 38.6 162.32 37.92 162.32 C36.78 160.78 36.78 160.78 35.52 158.61 C35.05 157.8 34.57 157 34.09 156.17 C33.58 155.29 33.07 154.41 32.54 153.5 C31.46 151.66 30.37 149.82 29.28 147.97 C28.72 147.03 28.17 146.09 27.59 145.11 C25.05 140.86 22.39 136.68 19.73 132.5 C15.8 126.32 11.95 120.1 8.2 113.8 C5.57 109.37 2.85 104.99 0.11 100.63 C-4.27 93.68 -8.51 86.65 -12.71 79.58 C-16.38 73.42 -20.21 67.36 -24.08 61.32 C-26.7 57.22 -29.3 53.11 -31.89 49 C-32.56 47.96 -33.23 46.91 -33.92 45.84 C-34.55 44.82 -35.19 43.81 -35.85 42.77 C-36.42 41.86 -37 40.96 -37.59 40.03 C-39.15 37.19 -40.11 34.4 -41.08 31.32 C-41.41 30.99 -41.74 30.66 -42.08 30.32 C-43.82 21.27 -39.87 13.68 -35.08 6.32 C-26.28 -3.56 -11.53 -6.61 0 0 Z M-41.08 20.32 C-40.08 24.32 -40.08 24.32 -40.08 24.32 Z M-6.08 215.32 C-5.08 217.32 -5.08 217.32 -5.08 217.32 Z " fill="#3A3653" transform="translate(342.08203125,250.68359375)"/>
<path d="M0 0 C0 0.66 0 1.32 0 2 C0.68 2.19 1.36 2.37 2.06 2.56 C7.92 5.43 11.98 9.95 14.42 16.02 C16.43 22.85 16.25 31.88 14.19 38.67 C12.98 40.77 11.72 42.3 10 44 C9.36 44.66 8.71 45.32 8.05 46 C2.57 51.2 -3.56 55.1 -10 59 C-12.05 60.26 -14.09 61.53 -16.13 62.81 C-17.51 63.66 -18.88 64.51 -20.25 65.36 C-23.55 67.4 -26.74 69.51 -29.86 71.8 C-33 74 -33 74 -35 74 C-32.12 80.01 -28.85 85.59 -25.25 91.19 C-24.17 92.88 -23.09 94.58 -22.01 96.27 C-21.49 97.09 -20.97 97.9 -20.44 98.74 C-17.98 102.61 -15.59 106.52 -13.19 110.43 C-9.79 115.98 -6.35 121.52 -2.92 127.05 C1.4 134.03 5.7 141.01 10 148 C21.48 166.67 21.48 166.67 33 185.31 C33.53 186.17 34.06 187.02 34.61 187.91 C36.89 191.6 39.18 195.29 41.48 198.98 C42.19 200.13 42.91 201.28 43.62 202.44 C44.22 203.38 44.81 204.33 45.41 205.31 C50.34 213.67 52.4 221.54 50.06 231.19 C47.41 238.61 42.12 244.11 35.38 248.06 C28.56 251.09 20.78 251.33 13.61 249.34 C5.79 245.8 -0.38 239.7 -4 232 C-4 231.34 -4 230.68 -4 230 C-4.66 230 -5.32 230 -6 230 C-7.69 227.52 -7.69 227.52 -9.56 224.25 C-10.18 223.18 -10.8 222.12 -11.44 221.02 C-12.7 218.58 -13.53 216.67 -14 214 C-14.66 214 -15.32 214 -16 214 C-20 207.38 -20 207.38 -20 204 C-20.66 204 -21.32 204 -22 204 C-23.16 202.23 -24.23 200.41 -25.25 198.56 C-27.93 193.81 -30.76 189.28 -33.93 184.84 C-35 183 -35 183 -35 180 C-35.66 180 -36.32 180 -37 180 C-37.45 179.2 -37.9 178.4 -38.36 177.57 C-42.9 169.56 -47.6 161.67 -52.49 153.87 C-53.18 152.77 -53.18 152.77 -53.88 151.64 C-54.28 150.99 -54.69 150.33 -55.12 149.66 C-56 148 -56 148 -56 146 C-56.66 146 -57.32 146 -58 146 C-58.51 145.11 -59.02 144.21 -59.54 143.29 C-60.23 142.07 -60.93 140.85 -61.62 139.62 C-61.99 138.99 -62.35 138.36 -62.72 137.71 C-65.38 133.04 -68.13 128.45 -70.97 123.89 C-72 122 -72 122 -72 120 C-72.66 120 -73.32 120 -74 120 C-75.13 118.5 -75.13 118.5 -76.35 116.42 C-77.01 115.3 -77.01 115.3 -77.68 114.15 C-78.14 113.36 -78.59 112.57 -79.06 111.75 C-79.52 110.97 -79.98 110.2 -80.46 109.39 C-82.47 105.94 -84.18 102.95 -85 99 C-85.66 99 -86.32 99 -87 99 C-87.84 97.57 -88.67 96.13 -89.5 94.69 C-90.2 93.49 -90.2 93.49 -90.91 92.26 C-92 90 -92 90 -92 87 C-92.66 86.67 -93.32 86.34 -94 86 C-98.46 78.92 -97.77 68.53 -96.44 60.56 C-93.45 48.72 -85.43 39.06 -75.25 32.81 C-73.71 31.84 -72.18 30.88 -70.64 29.91 C-69.47 29.18 -69.47 29.18 -68.28 28.43 C-65.5 26.69 -62.75 24.91 -60 23.12 C-57.95 21.78 -55.89 20.45 -53.82 19.12 C-51.18 17.41 -48.55 15.7 -45.91 13.99 C-43.11 12.16 -40.3 10.34 -37.49 8.53 C-35.84 7.46 -34.2 6.38 -32.55 5.31 C-31.53 4.65 -30.51 3.99 -29.46 3.31 C-28.55 2.72 -27.64 2.13 -26.71 1.52 C-18.2 -3.26 -9.04 -3.22 0 0 Z M-95 59 C-94 61 -94 61 -94 61 Z " fill="#3A3653" transform="translate(819,374)"/>
<path d="M0 0 C1.2 -0.02 1.2 -0.02 2.42 -0.04 C3.28 -0.05 4.14 -0.05 5.03 -0.06 C5.94 -0.07 6.85 -0.08 7.78 -0.09 C10.75 -0.12 13.71 -0.13 16.67 -0.14 C17.68 -0.14 18.68 -0.14 19.72 -0.15 C33.15 -0.17 46.35 0.33 59.67 2.11 C60.35 2.21 61.04 2.3 61.74 2.39 C72.63 3.89 72.63 3.89 73.92 5.18 C76.59 5.32 79.25 5.22 81.92 5.18 C81.92 5.84 81.92 6.5 81.92 7.18 C82.91 7.18 83.9 7.18 84.92 7.18 C84.92 48.1 84.92 89.02 84.92 131.18 C71.06 131.18 57.2 131.18 42.92 131.18 C42.59 129.2 42.26 127.22 41.92 125.18 C41.02 125.66 40.11 126.14 39.18 126.64 C37.95 127.28 36.72 127.91 35.49 128.55 C34.89 128.87 34.3 129.19 33.69 129.51 C20.34 136.37 0.69 136.73 -13.46 132.26 C-30.12 125.34 -42.12 112.64 -49.38 96.23 C-56.58 77.38 -56.58 55.93 -48.46 37.36 C-44.37 28.54 -39.32 20.73 -32.08 14.18 C-31.57 13.72 -31.07 13.26 -30.55 12.79 C-22.66 6.23 -10.37 0.15 0 0 Z M32.92 1.18 C32.92 1.51 32.92 1.84 32.92 2.18 C35.56 2.18 38.2 2.18 40.92 2.18 C40.92 1.85 40.92 1.52 40.92 1.18 C38.28 1.18 35.64 1.18 32.92 1.18 Z M44.92 2.18 C44.92 2.51 44.92 2.84 44.92 3.18 C46.57 3.18 48.22 3.18 49.92 3.18 C49.92 2.85 49.92 2.52 49.92 2.18 C48.27 2.18 46.62 2.18 44.92 2.18 Z M-3.08 42.18 C-11.35 52.28 -13.27 62.26 -12.08 75.18 C-10.49 82.72 -7.11 89.23 -1.08 94.18 C0.25 94.54 1.58 94.88 2.92 95.18 C3.25 95.84 3.58 96.5 3.92 97.18 C5.57 97.18 7.22 97.18 8.92 97.18 C9.25 97.84 9.58 98.5 9.92 99.18 C18.71 98.89 26.88 97.92 34.92 94.18 C35.51 93.91 36.1 93.65 36.71 93.38 C38.88 92.17 40.33 91.1 41.92 89.18 C42.91 85.15 42.74 81.22 42.61 77.09 C42.6 75.93 42.59 74.76 42.58 73.55 C42.54 69.82 42.45 66.09 42.36 62.36 C42.33 59.83 42.29 57.3 42.26 54.77 C42.19 48.57 42.07 42.38 41.92 36.18 C39.85 36.01 37.77 35.85 35.7 35.69 C34.54 35.6 33.39 35.51 32.2 35.42 C19.96 34.52 6.8 33.65 -3.08 42.18 Z M-53.08 57.18 C-52.08 59.18 -52.08 59.18 -52.08 59.18 Z M-53.08 77.18 C-52.08 79.18 -52.08 79.18 -52.08 79.18 Z " fill="#3A3653" transform="translate(824.0771484375,1087.822998046875)"/>
<path d="M0 0 C0.71 -0.05 1.42 -0.1 2.14 -0.15 C4.24 -0.17 4.24 -0.17 8.12 0.75 C10.46 3.08 11.73 5.79 13.12 8.75 C13.55 9.62 13.98 10.49 14.42 11.39 C15.87 14.41 17.25 17.45 18.62 20.5 C19.68 22.81 20.73 25.11 21.78 27.42 C22.33 28.61 22.87 29.81 23.43 31.04 C26.29 37.31 29.21 43.56 32.12 49.81 C37.89 62.19 37.89 62.19 40.02 67 C42.86 73.45 45.83 79.84 48.78 86.25 C50.67 90.34 52.55 94.44 54.43 98.54 C54.82 99.38 55.21 100.22 55.61 101.09 C59.38 109.3 63.14 117.51 66.9 125.73 C67.58 127.23 68.27 128.73 68.96 130.22 C72.38 137.72 75.8 145.21 79.12 152.75 C81 150.88 81.84 148.19 82.94 145.81 C83.38 144.85 83.38 144.85 83.84 143.87 C84.53 142.38 85.22 140.88 85.91 139.39 C87.3 136.38 88.69 133.37 90.08 130.36 C94.36 121.09 98.64 111.82 102.86 102.53 C105.18 97.43 107.53 92.34 109.88 87.25 C110.66 85.56 110.66 85.56 111.45 83.83 C114.97 76.21 118.53 68.62 122.18 61.06 C123.92 57.45 125.51 53.83 126.97 50.09 C129.31 44.15 132 38.37 134.71 32.58 C135.56 30.75 136.41 28.92 137.26 27.09 C140.1 20.99 142.99 14.92 146.07 8.93 C147.19 6.69 147.19 6.69 148.2 4.04 C149.12 1.75 149.12 1.75 150.12 0.75 C152.76 0.6 155.36 0.52 158 0.5 C158.73 0.48 159.47 0.46 160.22 0.44 C165.61 0.4 165.61 0.4 167.82 1.91 C169.64 4.47 169.61 6.41 169.75 9.54 C169.82 10.75 169.88 11.96 169.95 13.2 C170 14.55 170.06 15.89 170.12 17.23 C170.19 18.65 170.26 20.07 170.33 21.48 C170.49 24.54 170.64 27.6 170.78 30.67 C171.12 38.07 171.5 45.47 171.88 52.87 C171.96 54.6 172.05 56.32 172.14 58.05 C172.82 71.5 173.61 84.93 174.49 98.37 C174.55 99.25 174.61 100.14 174.67 101.05 C175.17 108.84 175.69 116.62 176.22 124.41 C177.45 142.54 178.51 160.56 178.12 178.75 C175.93 178.8 173.74 178.84 171.54 178.89 C169.85 178.92 168.15 178.97 166.46 179.02 C165.73 179.03 165.01 179.04 164.26 179.04 C163.14 179.07 163.14 179.07 162 179.09 C161.07 178.92 161.07 178.92 160.12 178.75 C157.53 174.86 157.62 171.38 157.38 166.86 C157.32 165.94 157.27 165.03 157.21 164.08 C157.03 161.04 156.86 157.99 156.69 154.94 C156.56 152.8 156.44 150.66 156.31 148.52 C155.97 142.79 155.65 137.06 155.33 131.32 C155.12 127.74 154.92 124.15 154.71 120.56 C154.3 113.44 153.9 106.31 153.5 99.19 C153.44 98.08 153.38 96.97 153.31 95.83 C152.66 84.21 152.05 72.6 151.54 60.97 C151.5 60.02 151.45 59.06 151.41 58.07 C151.37 57.18 151.33 56.29 151.3 55.38 C151.26 54.6 151.23 53.82 151.19 53.03 C151.12 50.6 151.11 48.18 151.12 45.75 C150.72 46.7 150.31 47.65 149.88 48.63 C145.76 58.17 141.43 67.59 136.96 76.97 C135.09 80.89 133.23 84.82 131.38 88.74 C131.01 89.52 130.64 90.29 130.27 91.09 C126.64 98.75 123.11 106.45 119.61 114.17 C117.32 119.23 114.92 124.21 112.42 129.17 C110.09 133.82 107.86 138.5 105.62 143.19 C105.16 144.15 104.7 145.11 104.23 146.1 C101.51 151.79 98.85 157.5 96.25 163.25 C93.91 168.43 91.51 173.59 89.12 178.75 C83.19 178.75 77.25 178.75 71.12 178.75 C70.8 177.43 70.47 176.11 70.12 174.75 C69.47 174.75 68.81 174.75 68.12 174.75 C67.74 173.83 67.35 172.91 66.95 171.97 C66.43 170.73 65.9 169.49 65.38 168.25 C64.86 167.04 64.35 165.84 63.83 164.59 C62.4 161.29 60.82 158.08 59.19 154.88 C57.21 150.93 55.33 146.93 53.44 142.94 C53 142.02 52.57 141.1 52.12 140.16 C51.22 138.27 50.32 136.38 49.42 134.49 C48.23 131.97 47.03 129.45 45.82 126.93 C41.37 117.59 37.05 108.2 32.8 98.77 C29.91 92.36 26.86 86.05 23.55 79.85 C21.61 76.13 20.77 72.87 20.12 68.75 C19.14 68.26 19.14 68.26 18.12 67.75 C16.89 65.5 15.74 63.25 14.62 60.94 C14.32 60.31 14.01 59.68 13.69 59.03 C12.83 57.27 11.98 55.51 11.12 53.75 C10.72 53 10.32 52.26 9.91 51.49 C9.12 49.75 9.12 49.75 9.12 46.75 C8.46 46.75 7.8 46.75 7.12 46.75 C7.13 47.38 7.14 48.02 7.15 48.67 C7.22 56.36 6.82 63.99 6.32 71.67 C6.24 73.01 6.15 74.34 6.07 75.68 C5.89 78.5 5.71 81.32 5.53 84.14 C5.06 91.47 4.6 98.8 4.14 106.13 C4.1 106.85 4.05 107.58 4.01 108.32 C3.14 122.19 2.38 136.07 1.72 149.95 C0.54 174.49 0.54 174.49 -0.88 178.75 C-6.82 178.75 -12.76 178.75 -18.88 178.75 C-19.16 153.65 -18.51 128.82 -16.74 103.79 C-16.26 96.95 -15.8 90.1 -15.35 83.25 C-15.23 81.54 -15.12 79.82 -15 78.1 C-14.22 66.52 -13.54 54.93 -12.98 43.33 C-12.92 41.99 -12.85 40.66 -12.78 39.32 C-12.49 33.22 -12.21 27.11 -11.95 21 C-11.85 18.87 -11.75 16.74 -11.65 14.61 C-11.6 13.18 -11.6 13.18 -11.54 11.72 C-11.36 8.1 -11.23 5.43 -9.55 2.18 C-6.74 -0.22 -3.52 0.01 0 0 Z M-9.88 4.75 C-9.88 7.72 -9.88 10.69 -9.88 13.75 C-9.54 13.75 -9.21 13.75 -8.88 13.75 C-8.88 10.78 -8.88 7.81 -8.88 4.75 C-9.21 4.75 -9.54 4.75 -9.88 4.75 Z M-10.88 21.75 C-10.88 25.05 -10.88 28.35 -10.88 31.75 C-10.54 31.75 -10.21 31.75 -9.88 31.75 C-9.88 28.45 -9.88 25.15 -9.88 21.75 C-10.21 21.75 -10.54 21.75 -10.88 21.75 Z M-11.88 37.75 C-11.88 41.05 -11.88 44.35 -11.88 47.75 C-11.54 47.75 -11.21 47.75 -10.88 47.75 C-10.88 44.45 -10.88 41.15 -10.88 37.75 C-11.21 37.75 -11.54 37.75 -11.88 37.75 Z M127.12 50.75 C128.12 52.75 128.12 52.75 128.12 52.75 Z M152.12 53.75 C152.12 55.4 152.12 57.05 152.12 58.75 C152.46 58.75 152.78 58.75 153.12 58.75 C153.12 57.1 153.12 55.45 153.12 53.75 C152.79 53.75 152.47 53.75 152.12 53.75 Z M-12.88 60.75 C-11.88 63.75 -11.88 63.75 -11.88 63.75 Z M153.12 69.75 C154.12 73.75 154.12 73.75 154.12 73.75 Z M-13.88 75.75 C-12.88 79.75 -12.88 79.75 -12.88 79.75 Z M154.12 87.75 C155.12 90.75 155.12 90.75 155.12 90.75 Z M-14.88 91.75 C-14.88 94.06 -14.88 96.37 -14.88 98.75 C-14.54 98.75 -14.21 98.75 -13.88 98.75 C-13.88 96.44 -13.88 94.13 -13.88 91.75 C-14.21 91.75 -14.54 91.75 -14.88 91.75 Z M155.12 102.75 C156.12 105.75 156.12 105.75 156.12 105.75 Z M-15.88 109.75 C-15.88 111.4 -15.88 113.05 -15.88 114.75 C-15.54 114.75 -15.21 114.75 -14.88 114.75 C-14.88 113.1 -14.88 111.45 -14.88 109.75 C-15.21 109.75 -15.54 109.75 -15.88 109.75 Z M156.12 117.75 C156.12 121.05 156.12 124.35 156.12 127.75 C156.46 127.75 156.78 127.75 157.12 127.75 C157.12 124.45 157.12 121.15 157.12 117.75 C156.79 117.75 156.47 117.75 156.12 117.75 Z M-16.88 125.75 C-16.88 127.73 -16.88 129.71 -16.88 131.75 C-16.55 131.75 -16.21 131.75 -15.88 131.75 C-15.88 129.77 -15.88 127.79 -15.88 125.75 C-16.2 125.75 -16.54 125.75 -16.88 125.75 Z M157.12 133.75 C157.12 137.05 157.12 140.35 157.12 143.75 C157.46 143.75 157.78 143.75 158.12 143.75 C158.12 140.45 158.12 137.15 158.12 133.75 C157.79 133.75 157.47 133.75 157.12 133.75 Z M-17.88 139.75 C-17.88 143.05 -17.88 146.35 -17.88 149.75 C-17.55 149.75 -17.21 149.75 -16.88 149.75 C-16.88 146.45 -16.88 143.15 -16.88 139.75 C-17.2 139.75 -17.54 139.75 -17.88 139.75 Z M158.12 150.75 C158.12 153.39 158.12 156.03 158.12 158.75 C158.46 158.75 158.78 158.75 159.12 158.75 C159.12 156.11 159.12 153.47 159.12 150.75 C158.79 150.75 158.47 150.75 158.12 150.75 Z M159.12 170.75 C159.12 172.4 159.12 174.05 159.12 175.75 C159.46 175.75 159.78 175.75 160.12 175.75 C160.12 174.1 160.12 172.45 160.12 170.75 C159.79 170.75 159.47 170.75 159.12 170.75 Z " fill="#3A3653" transform="translate(18.875,1040.25)"/>
<path d="M0 0 C1.08 0 1.08 0 2.18 0 C3.68 0 5.18 0.01 6.68 0.02 C8.99 0.04 11.3 0.05 13.61 0.04 C15.07 0.05 16.54 0.06 18 0.06 C19.04 0.06 19.04 0.06 20.1 0.07 C24.92 0.11 24.92 0.11 26.04 1.23 C26.86 1.23 27.69 1.23 28.54 1.23 C29.36 1.23 30.19 1.23 31.04 1.23 C31.53 1.73 31.53 1.73 32.04 2.23 C34 2.49 35.96 2.74 37.93 2.95 C40.03 3.23 41.98 3.69 44.04 4.23 C46.28 4.75 48.53 5.28 50.79 5.79 C52.54 6.2 52.54 6.2 54.33 6.61 C55.22 6.81 56.12 7.02 57.04 7.23 C57.04 7.89 57.04 8.55 57.04 9.23 C58.36 9.56 59.68 9.89 61.04 10.23 C60.39 16.51 59.11 22.44 57.54 28.54 C57.2 29.88 57.2 29.88 56.85 31.25 C56 34.62 55.13 37.93 54.04 41.23 C47.52 40.55 41.28 39.23 34.91 37.73 C26.37 35.73 18.33 34.04 9.54 33.98 C8.8 33.96 8.07 33.94 7.31 33.92 C2.49 33.88 -0.8 34.54 -4.96 37.23 C-7.2 39.98 -7.2 39.98 -6.96 42.73 C-6.16 45.44 -6.16 45.44 -3.5 46.79 C0.86 48.57 5.01 49.19 9.66 49.79 C11.34 50.02 13.02 50.25 14.7 50.48 C15.8 50.63 15.8 50.63 16.93 50.78 C19.22 51.27 20.96 52.17 23.04 53.23 C24.03 53.35 25.02 53.48 26.04 53.61 C39.48 55.31 50.34 62.06 59.04 72.23 C65.76 81.81 65.39 94.38 63.46 105.57 C60.23 115.77 52.58 123.04 43.36 128.05 C42.6 128.44 41.83 128.83 41.04 129.23 C39.92 129.81 38.81 130.39 37.66 130.98 C27.63 134.44 17.29 134.56 6.79 134.48 C5.76 134.47 5.76 134.47 4.71 134.47 C-13.52 134.35 -29.54 131.52 -46.96 126.23 C-47.98 125.96 -49 125.69 -50.05 125.42 C-51.96 124.23 -51.96 124.23 -52.92 121.7 C-52.98 117.1 -51.92 113.18 -50.65 108.79 C-50.43 107.97 -50.2 107.15 -49.97 106.31 C-49.52 104.7 -49.07 103.09 -48.6 101.48 C-48.2 100.04 -47.81 98.6 -47.46 97.14 C-46.28 92.44 -46.28 92.44 -42.96 90.23 C-40.44 90.88 -40.44 90.88 -37.59 92.04 C-34.03 93.48 -30.73 94.52 -26.96 95.23 C-26.04 95.73 -26.04 95.73 -25.09 96.23 C-22.14 97.62 -19.19 97.79 -15.96 98.23 C-14.74 98.73 -14.74 98.73 -13.49 99.25 C-8.32 100.69 -3.31 100.52 2.04 100.48 C3.1 100.49 4.17 100.5 5.27 100.5 C10.57 100.49 15.09 100.39 20.04 98.23 C20.83 94.94 21.13 93.52 20.04 90.23 C11.72 86.64 2.43 85.16 -6.4 83.36 C-20.74 80.26 -34.12 77.03 -43.96 65.23 C-44.73 62.96 -44.73 62.96 -44.96 61.23 C-45.62 61.23 -46.28 61.23 -46.96 61.23 C-51.67 50.24 -51.52 37.96 -47.22 26.84 C-45.28 22.8 -43.01 19.52 -39.96 16.23 C-39.17 15.34 -39.17 15.34 -38.36 14.43 C-28.84 4.95 -13.19 -0.14 0 0 Z M-7.96 1.23 C-3.96 2.23 -3.96 2.23 -3.96 2.23 Z M-45.96 94.23 C-44.96 96.23 -44.96 96.23 -44.96 96.23 Z " fill="#3A3653" transform="translate(1113.96484375,1087.76953125)"/>
<path d="M0 0 C0.71 -0 1.43 -0 2.16 -0 C3.66 -0 5.17 -0 6.67 0 C8.96 0.01 11.25 0 13.54 -0 C15.01 -0 16.47 -0 17.94 0 C18.95 -0 18.95 -0 19.99 -0.01 C30.51 0.05 30.51 0.05 32.6 2.13 C34.56 2.39 36.53 2.64 38.5 2.85 C40.59 3.13 42.55 3.6 44.6 4.13 C46.04 4.43 47.48 4.72 48.91 5.01 C58.61 7.14 58.61 7.14 61.6 10.13 C61.14 17.27 59.5 23.83 57.54 30.7 C57.26 31.7 56.98 32.71 56.69 33.75 C56 36.21 55.3 38.67 54.6 41.13 C48.09 40.46 41.85 39.14 35.48 37.63 C26.73 35.58 18.54 33.94 9.54 33.88 C8.75 33.86 7.96 33.84 7.15 33.82 C2.52 33.79 -0.72 33.98 -4.4 37.13 C-5.1 40.23 -5.4 42.97 -5.4 46.13 C-4.47 46.34 -3.54 46.54 -2.59 46.75 C-1.39 47.02 -0.19 47.29 1.04 47.57 C2.23 47.84 3.43 48.1 4.66 48.38 C7.6 49.13 7.6 49.13 8.6 50.13 C11.31 50.42 14.02 50.58 16.74 50.75 C19.67 51.14 21.9 51.98 24.6 53.13 C25.93 53.44 27.26 53.71 28.6 53.95 C41.41 56.75 51.44 62.04 60.1 72.01 C65.69 83.66 66.14 96.04 62.64 108.41 C59.08 117.75 50.63 125.21 41.66 129.29 C15.82 139.82 -17.3 135.15 -43.4 127.13 C-44.16 126.92 -44.92 126.7 -45.7 126.48 C-47.89 125.79 -47.89 125.79 -51.4 124.13 C-52.75 120.29 -52.25 117.41 -51.25 113.54 C-50.99 112.49 -50.72 111.44 -50.45 110.36 C-50.02 108.73 -50.02 108.73 -49.59 107.07 C-49.31 105.98 -49.04 104.89 -48.76 103.77 C-46.5 95 -46.5 95 -44.4 91.13 C-40.3 91.77 -36.3 92.58 -32.27 93.57 C-31.26 93.82 -30.25 94.06 -29.2 94.32 C-26.72 95.04 -24.69 95.97 -22.4 97.13 C-20.07 97.51 -17.74 97.85 -15.4 98.13 C-14.59 98.3 -13.79 98.46 -12.96 98.63 C-6.56 99.88 -0.28 100.31 6.23 100.32 C6.95 100.33 7.68 100.34 8.42 100.36 C12.87 100.37 16.43 99.86 20.6 98.13 C21.96 97.01 21.96 97.01 21.66 94.07 C21.64 93.1 21.62 92.13 21.6 91.13 C14.18 87.23 6.67 85.76 -1.52 84.26 C-19.02 80.82 -34.21 76.92 -45.4 62.03 C-46.4 60.13 -46.4 60.13 -46.4 56.13 C-47.06 56.13 -47.72 56.13 -48.4 56.13 C-51.75 49.43 -50.16 37.59 -48.6 30.49 C-44.37 19.4 -36.08 11.1 -25.4 6.13 C-20.78 4.29 -16.14 2.63 -11.4 1.13 C-10.83 0.95 -10.26 0.77 -9.67 0.58 C-6.45 -0.05 -3.26 -0.01 0 0 Z M-7.4 1.13 C-3.4 2.13 -3.4 2.13 -3.4 2.13 Z M20.6 1.13 C20.6 1.46 20.6 1.79 20.6 2.13 C22.25 2.13 23.9 2.13 25.6 2.13 C25.6 1.8 25.6 1.47 25.6 1.13 C23.95 1.13 22.3 1.13 20.6 1.13 Z M-48.4 34.13 C-47.4 36.13 -47.4 36.13 -47.4 36.13 Z M-48.4 52.13 C-47.4 54.13 -47.4 54.13 -47.4 54.13 Z M-46.4 98.13 C-45.4 100.13 -45.4 100.13 -45.4 100.13 Z M-47.4 102.13 C-46.4 104.13 -46.4 104.13 -46.4 104.13 Z M-48.4 106.13 C-47.4 108.13 -47.4 108.13 -47.4 108.13 Z " fill="#3A3653" transform="translate(984.3984375,1087.8671875)"/>
<path d="M0 0 C0.85 -0 1.7 -0.01 2.58 -0.01 C4.38 -0.02 6.18 -0.02 7.98 -0.01 C10.65 -0.01 13.33 -0.04 16.01 -0.06 C28.19 -0.1 40 0.92 51.95 3.3 C52.45 3.8 52.45 3.8 52.95 4.3 C53.72 4.3 54.48 4.3 55.27 4.3 C59.6 4.3 62.02 5.33 65.95 7.3 C65.95 46.24 65.95 85.18 65.95 125.3 C60.01 125.3 54.07 125.3 47.95 125.3 C45.8 122.07 45.75 121.02 45.95 117.3 C44.8 117.86 43.64 118.41 42.45 118.98 C40.91 119.71 39.37 120.44 37.83 121.18 C36.69 121.72 36.69 121.72 35.52 122.28 C19.86 129.71 -1.81 131.65 -18.54 126.32 C-34.99 119.62 -46.08 108.44 -53.39 92.35 C-55.62 86.67 -56.65 81.38 -57.05 75.3 C-57.38 75.3 -57.71 75.3 -58.05 75.3 C-58.68 51.08 -58.68 51.08 -55.05 41.3 C-54.63 40.15 -54.22 39.01 -53.79 37.82 C-50.67 29.87 -46.9 23.51 -41.05 17.3 C-40.39 16.59 -39.74 15.89 -39.06 15.16 C-28.74 5.01 -14.29 -0.02 0 0 Z M27.95 1.3 C31.95 2.3 31.95 2.3 31.95 2.3 Z M36.95 2.3 C40.95 3.3 40.95 3.3 40.95 3.3 Z M-26.86 28.8 C-37.46 42.39 -40.71 57.83 -38.62 74.78 C-36.53 86.39 -32.04 96.68 -22.75 104.23 C-21.1 105.48 -21.1 105.48 -19.05 105.3 C-19.05 105.96 -19.05 106.62 -19.05 107.3 C-18 107.78 -16.94 108.25 -15.86 108.74 C-15.27 109.01 -14.68 109.27 -14.07 109.55 C-7.71 111.92 -1.04 111.52 5.64 111.55 C6.77 111.57 7.91 111.59 9.08 111.61 C19.81 111.66 28.08 109.1 37.52 104.18 C38.58 103.64 38.58 103.64 39.67 103.09 C43.03 101.51 43.03 101.51 45.95 99.3 C46.05 96.81 46.08 94.34 46.07 91.84 C46.07 91.06 46.07 90.28 46.07 89.48 C46.07 86.89 46.06 84.29 46.05 81.7 C46.05 79.91 46.05 78.12 46.05 76.33 C46.04 71.6 46.03 66.87 46.02 62.15 C46.01 57.33 46.01 52.51 46 47.69 C45.99 38.23 45.97 28.76 45.95 19.3 C27.83 16.72 27.83 16.72 9.58 15.93 C8.67 15.91 7.77 15.9 6.84 15.89 C-4.92 15.94 -18.57 20.12 -26.86 28.8 Z M46.95 20.3 C47.95 22.3 47.95 22.3 47.95 22.3 Z M-57.05 53.3 C-56.05 57.3 -56.05 57.3 -56.05 57.3 Z M-2.05 112.3 C-2.05 112.63 -2.05 112.96 -2.05 113.3 C3.23 113.3 8.51 113.3 13.95 113.3 C13.95 112.97 13.95 112.64 13.95 112.3 C8.67 112.3 3.39 112.3 -2.05 112.3 Z " fill="#3A3653" transform="translate(512.046875,1093.69921875)"/>
<path d="M0 0 C1.49 -0.02 1.49 -0.02 3.01 -0.04 C18.18 -0.07 30.7 4.94 42.69 14.19 C44.23 15.33 44.23 15.33 45.81 16.5 C59 28.83 64.99 43.67 65.97 61.43 C66.58 79.77 62.78 95.98 50.69 110.25 C36.71 124.69 19.83 129.8 0.19 130.56 C-1.65 130.49 -3.48 130.36 -5.31 130.19 C-5.99 130.13 -6.66 130.07 -7.36 130.01 C-25.01 128.31 -39.54 122.4 -51.37 108.82 C-54.26 105.27 -56.23 102.64 -57.31 98.19 C-57.97 97.86 -58.63 97.53 -59.31 97.19 C-62.4 92.46 -63.91 87.48 -64.92 81.97 C-65.15 80.17 -65.15 80.17 -66.31 79.19 C-66.63 74.76 -66.59 70.31 -66.62 65.88 C-66.65 64.64 -66.68 63.41 -66.71 62.15 C-66.77 53.73 -65.49 46.97 -62.31 39.19 C-61.89 38.09 -61.47 36.98 -61.03 35.85 C-53.49 19.78 -40.34 9.36 -23.88 3.25 C-15.8 0.49 -8.46 0.01 0 0 Z M-35.86 32.27 C-44.37 43.52 -49.01 56.98 -47.31 71.19 C-45.05 84.59 -40.69 95.08 -30.01 104.04 C-28.38 105.37 -28.38 105.37 -26.31 105.19 C-25.82 106.18 -25.82 106.18 -25.31 107.19 C-23.18 108.29 -23.18 108.29 -20.62 109.25 C-19.35 109.76 -19.35 109.76 -18.05 110.29 C-12.07 112.26 -6.23 112.37 0 112.38 C0.8 112.39 1.61 112.4 2.44 112.41 C14.82 112.44 24.64 108.71 33.77 100.25 C45.54 87.6 47.24 70.84 46.69 54.19 C46.39 52.85 46.07 51.51 45.69 50.19 C45.03 50.19 44.37 50.19 43.69 50.19 C44.02 49.2 44.35 48.21 44.69 47.19 C44.03 47.19 43.37 47.19 42.69 47.19 C42.65 46.38 42.61 45.58 42.56 44.75 C40.54 36.52 34.59 29.89 27.69 25.19 C7.73 14.1 -19.59 13.7 -35.86 32.27 Z M-65.31 51.19 C-64.31 54.19 -64.31 54.19 -64.31 54.19 Z M45.69 74.19 C46.69 77.19 46.69 77.19 46.69 77.19 Z " fill="#3A3653" transform="translate(300.3125,1092.8125)"/>
<path d="M0 0 C6.27 0 12.54 0 19 0 C19.07 18.79 19.12 37.59 19.16 56.38 C19.17 65.11 19.19 73.84 19.23 82.57 C19.26 90.18 19.28 97.79 19.28 105.4 C19.29 109.43 19.3 113.46 19.32 117.48 C19.34 121.28 19.34 125.08 19.34 128.88 C19.34 130.92 19.36 132.96 19.37 134.99 C19.33 148.72 17.72 160.67 8.18 170.96 C0.15 178.65 -9.42 181.16 -20.31 181.06 C-21.57 181.05 -22.82 181.04 -24.11 181.04 C-25.07 181.02 -26.02 181.01 -27 181 C-28.13 177.39 -28.1 174.02 -28.06 170.25 C-28.05 169.08 -28.04 167.91 -28.04 166.7 C-28.02 165.81 -28.01 164.92 -28 164 C-26.99 163.9 -25.97 163.8 -24.93 163.7 C-23.58 163.55 -22.23 163.4 -20.88 163.25 C-20.21 163.19 -19.54 163.13 -18.86 163.06 C-13.12 162.39 -9.12 160.49 -5.36 156.07 C-4.97 155.43 -4.58 154.79 -4.19 154.12 C-3.79 153.49 -3.39 152.85 -2.98 152.2 C-0.94 147.63 -0.87 142.75 -0.84 137.81 C-0.83 136.59 -0.82 135.37 -0.81 134.12 C-0.81 132.78 -0.8 131.44 -0.79 130.1 C-0.79 128.68 -0.78 127.26 -0.76 125.84 C-0.74 122 -0.72 118.16 -0.7 114.31 C-0.67 110.29 -0.65 106.27 -0.62 102.25 C-0.57 94.65 -0.53 87.04 -0.48 79.43 C-0.43 70.77 -0.38 62.11 -0.32 53.44 C-0.21 35.63 -0.1 17.82 0 0 Z M-27 174 C-26 177 -26 177 -26 177 Z " fill="#3A3653" transform="translate(399,1099)"/>
<path d="M0 0 C3.12 1.75 3.12 1.75 6 4 C6.76 4.56 7.53 5.11 8.31 5.69 C10.88 9.21 11.05 12.71 11 17 C10.19 20.96 8.19 23.56 4.97 26.04 C0.79 28.08 -3.52 27.93 -8 27 C-10.85 25.43 -13.1 23.66 -15 21 C-15 20.01 -15 19.02 -15 18 C-15.66 18 -16.32 18 -17 18 C-17.31 13.46 -17.43 10.89 -15.44 6.75 C-11.24 2.02 -6.58 -1.12 0 0 Z " fill="#3A3653" transform="translate(412,1041)"/>
<path d="M0 0 C0.33 0 0.66 0 1 0 C1 11.22 1 22.44 1 34 C0.67 34 0.34 34 0 34 C0 22.78 0 11.56 0 0 Z " fill="#3A3653" transform="translate(147,419)"/>
<path d="M0 0 C7.59 0 15.18 0 23 0 C23 0.33 23 0.66 23 1 C15.41 1 7.82 1 0 1 C0 0.67 0 0.34 0 0 Z " fill="#3A3653" transform="translate(827,1087)"/>
<path d="M0 0 C0.33 0 0.66 0 1 0 C1 5.28 1 10.56 1 16 C0.67 16 0.34 16 0 16 C0 10.72 0 5.44 0 0 Z " fill="#3A3653" transform="translate(233,1150)"/>
<path d="M0 0 C4.95 0 9.9 0 15 0 C15 0.33 15 0.66 15 1 C10.05 1 5.1 1 0 1 C0 0.67 0 0.34 0 0 Z " fill="#3A3653" transform="translate(401,1097)"/>
<path d="M0 0 C4.95 0 9.9 0 15 0 C15 0.33 15 0.66 15 1 C10.05 1 5.1 1 0 1 C0 0.67 0 0.34 0 0 Z " fill="#3A3653" transform="translate(512,1093)"/>
<path d="M0 0 C4.95 0 9.9 0 15 0 C15 0.33 15 0.66 15 1 C10.05 1 5.1 1 0 1 C0 0.67 0 0.34 0 0 Z " fill="#3A3653" transform="translate(477,544)"/>
<path d="M0 0 C0.33 0 0.66 0 1 0 C1 3.63 1 7.26 1 11 C0.67 11 0.34 11 0 11 C0 7.37 0 3.74 0 0 Z " fill="#3A3653" transform="translate(636,223)"/>
<path d="M0 0 C3.3 0 6.6 0 10 0 C10 0.33 10 0.66 10 1 C6.7 1 3.4 1 0 1 C0 0.67 0 0.34 0 0 Z " fill="#3A3653" transform="translate(1117,1087)"/>
<path d="M0 0 C3.3 0 6.6 0 10 0 C10 0.33 10 0.66 10 1 C6.7 1 3.4 1 0 1 C0 0.67 0 0.34 0 0 Z " fill="#3A3653" transform="translate(987,1087)"/>
<path d="M0 0 C0.33 0 0.66 0 1 0 C1 3.3 1 6.6 1 10 C0.67 10 0.34 10 0 10 C0 6.7 0 3.4 0 0 Z " fill="#3A3653" transform="translate(402,56)"/>
<path d="M0 0 C2.97 0 5.94 0 9 0 C9 0.33 9 0.66 9 1 C6.03 1 3.06 1 0 1 C0 0.67 0 0.34 0 0 Z " fill="#3A3653" transform="translate(678,1038)"/>
<path d="M0 0 C2.64 0 5.28 0 8 0 C8 0.33 8 0.66 8 1 C5.36 1 2.72 1 0 1 C0 0.67 0 0.34 0 0 Z " fill="#3A3653" transform="translate(661,197)"/>
<path d="M0 0 C0.33 0 0.66 0 1 0 C1 2.31 1 4.62 1 7 C0.67 7 0.34 7 0 7 C0 4.69 0 2.38 0 0 Z " fill="#3A3653" transform="translate(486,433)"/>
<path d="M0 0 C2.31 0 4.62 0 7 0 C7 0.33 7 0.66 7 1 C4.69 1 2.38 1 0 1 C0 0.67 0 0.34 0 0 Z " fill="#3A3653" transform="translate(952,241)"/>
<path d="" fill="#3A3653" transform="translate(0,0)"/>
<path d="" fill="#3A3653" transform="translate(0,0)"/>
<path d="" fill="#3A3653" transform="translate(0,0)"/>
<path d="" fill="#3A3653" transform="translate(0,0)"/>
<path d="" fill="#3A3653" transform="translate(0,0)"/>
</svg>
