<?xml version="1.0" standalone="no"?>
<!DOCTYPE svg PUBLIC "-//W3C//DTD SVG 20010904//EN"
 "http://www.w3.org/TR/2001/REC-SVG-20010904/DTD/svg10.dtd">
<svg version="1.0" xmlns="http://www.w3.org/2000/svg"
 width="1339.000000pt" height="1454.000000pt" viewBox="0 0 1339.000000 1454.000000"
 preserveAspectRatio="xMidYMid meet">
<metadata>
Created by potrace 1.16, written by Peter Selinger 2001-2019
</metadata>
<g transform="translate(0.000000,1454.000000) scale(0.100000,-0.100000)"
fill="#000000" stroke="none">
<path d="M6320 14534 c-19 -2 -84 -9 -145 -14 -374 -35 -753 -116 -1115 -238
-294 -100 -366 -143 -428 -259 -120 -225 7 -490 260 -544 71 -16 137 -6 259
39 410 152 748 226 1194 263 197 16 606 6 818 -20 654 -81 1259 -304 1816
-670 99 -65 160 -84 255 -83 220 4 391 210 356 429 -12 73 -50 149 -97 198
-98 99 -535 350 -844 485 -479 209 -928 329 -1484 396 -122 15 -752 28 -845
18z"/>
<path d="M6645 13301 c-33 -16 -77 -46 -97 -67 -32 -34 -117 -184 -328 -579
-109 -205 -124 -233 -195 -365 -40 -74 -97 -180 -127 -235 -29 -56 -96 -180
-148 -277 l-94 -176 -266 135 c-303 154 -322 159 -437 124 -87 -26 -147 -77
-188 -157 -26 -52 -30 -70 -30 -144 0 -70 4 -94 24 -134 41 -83 93 -123 282
-220 96 -49 246 -126 335 -172 193 -100 255 -118 377 -111 78 4 98 9 172 46
103 51 181 131 244 252 24 46 105 197 179 334 74 138 151 282 172 320 183 342
267 499 295 550 18 33 52 96 75 140 24 44 71 132 106 196 81 149 98 203 91
280 -19 217 -250 352 -442 260z"/>
<path d="M3095 12919 c-134 -19 -199 -76 -415 -364 -649 -866 -990 -1892 -990
-2975 0 -1003 294 -1959 858 -2790 179 -264 356 -476 601 -720 261 -260 503
-458 593 -485 106 -31 227 -14 316 45 153 103 213 298 140 461 -34 74 -69 112
-217 233 -69 56 -186 161 -260 232 -580 559 -984 1270 -1170 2059 -68 292 -98
537 -107 875 -27 1005 312 1994 945 2755 41 49 88 119 105 155 27 57 31 76 31
150 0 71 -5 94 -28 143 -36 78 -77 128 -136 166 -83 54 -171 74 -266 60z"/>
<path d="M7513 12279 c-144 -28 -247 -138 -260 -279 -6 -67 24 -714 37 -790
32 -180 193 -340 381 -379 45 -10 223 -7 865 13 1238 39 1220 38 1279 65 217
97 257 386 74 533 -24 19 -64 43 -89 52 -52 21 -139 22 -590 6 -157 -5 -449
-14 -650 -20 -201 -5 -431 -13 -511 -16 l-146 -6 -7 208 c-10 301 -19 381 -50
441 -61 121 -208 197 -333 172z"/>
<path d="M10749 11766 c-76 -29 -118 -57 -167 -110 -68 -75 -95 -146 -96 -251
0 -72 4 -91 43 -185 393 -959 436 -1966 125 -2934 -142 -442 -359 -859 -647
-1241 -228 -302 -532 -605 -832 -830 -609 -454 -1294 -728 -2050 -817 -146
-18 -236 -22 -480 -22 -328 1 -519 17 -787 70 -175 34 -267 31 -353 -13 -262
-134 -274 -510 -21 -658 74 -43 360 -97 721 -137 156 -17 729 -17 885 0 633
69 1118 200 1650 446 701 325 1342 837 1826 1459 582 749 921 1607 1025 2592
17 159 17 733 0 890 -51 482 -143 882 -301 1306 -110 294 -153 359 -278 417
-68 32 -203 41 -263 18z"/>
<path d="M3653 11706 c-186 -61 -278 -262 -198 -436 8 -19 58 -102 110 -185
127 -203 238 -382 250 -403 6 -10 37 -60 69 -112 140 -226 190 -306 301 -485
64 -104 141 -228 170 -275 l54 -85 -127 -81 c-70 -46 -178 -115 -241 -156
-124 -80 -156 -110 -192 -184 -34 -69 -34 -199 -1 -262 59 -111 150 -172 270
-180 97 -6 130 7 337 141 94 60 228 146 299 191 178 112 236 167 289 274 l42
86 0 125 c0 146 -8 170 -119 346 -54 85 -334 537 -679 1095 -106 172 -159 257
-202 325 -18 28 -44 71 -59 97 -35 60 -105 124 -164 150 -57 26 -154 32 -209
14z"/>
<path d="M6555 10693 c-307 -36 -562 -172 -753 -402 -322 -387 -346 -923 -60
-1344 157 -232 430 -408 716 -463 98 -19 311 -18 404 1 434 90 756 392 875
821 25 91 28 114 28 274 0 153 -3 186 -24 265 -91 342 -325 620 -639 759 -162
72 -387 108 -547 89z m247 -653 c154 -47 278 -179 318 -337 24 -91 25 -146 5
-232 -61 -259 -326 -421 -580 -356 -225 58 -366 237 -366 465 0 143 52 263
156 359 118 108 309 150 467 101z"/>
<path d="M9125 10300 c-68 -14 -86 -24 -357 -198 -145 -93 -283 -181 -308
-197 -187 -118 -277 -333 -224 -539 18 -71 31 -93 274 -486 101 -162 206 -333
235 -380 29 -47 99 -159 155 -250 132 -212 255 -411 293 -475 157 -265 228
-325 387 -325 240 0 387 272 260 480 -15 25 -68 110 -117 190 -50 80 -157 253
-238 385 -239 388 -325 525 -375 605 -41 65 -185 302 -197 322 -4 7 97 75 366
247 118 75 151 108 185 181 28 60 35 153 16 220 -41 146 -208 250 -355 220z"/>
<path d="M4800 8320 c-294 -10 -691 -23 -882 -29 -412 -13 -427 -16 -518 -110
-86 -89 -111 -198 -72 -320 24 -77 104 -159 187 -191 l60 -23 545 17 c1099 33
1281 38 1285 34 2 -2 10 -135 18 -294 l14 -291 33 -62 c100 -187 347 -230 494
-87 91 89 107 152 95 379 -5 89 -13 261 -18 382 -8 196 -12 227 -34 289 -50
137 -146 239 -277 293 -61 25 -76 27 -230 29 -91 1 -406 -6 -700 -16z"/>
<path d="M7435 8217 c-33 -12 -81 -37 -106 -54 -93 -64 -127 -113 -284 -408
-129 -242 -285 -532 -480 -895 -152 -284 -173 -322 -268 -500 -31 -58 -61
-129 -67 -158 -30 -139 62 -297 206 -352 112 -42 241 -12 328 77 34 36 59 76
166 278 24 44 55 103 70 130 15 28 49 91 75 140 26 50 74 137 105 195 31 58
79 146 105 195 26 50 60 113 75 140 15 28 87 163 160 300 74 138 135 251 136
253 1 2 123 -59 270 -134 l269 -137 70 0 c145 0 260 84 305 223 18 55 21 82
16 122 -10 71 -47 145 -98 195 -42 40 -230 143 -617 336 l-144 72 -116 2
c-100 3 -124 0 -176 -20z"/>
<path d="M7385 2720 c-88 -4 -208 -8 -267 -9 l-108 -1 0 -1010 0 -1010 250 0
250 0 0 269 0 268 228 6 c157 4 250 11 302 22 394 88 620 354 620 730 0 215
-59 365 -200 505 -67 67 -103 94 -170 127 -209 104 -388 125 -905 103z m597
-467 c114 -53 172 -143 172 -273 0 -127 -59 -221 -172 -273 -43 -20 -67 -22
-259 -25 l-213 -4 0 302 0 301 213 -3 c192 -3 216 -5 259 -25z"/>
<path d="M110 2659 c0 -29 -13 -273 -30 -543 -64 -1056 -80 -1343 -80 -1384
l0 -43 108 3 107 3 12 210 c7 116 24 408 39 650 14 242 29 492 33 555 l6 114
59 -129 c33 -72 97 -208 143 -304 46 -95 83 -175 83 -176 0 -2 34 -74 76 -161
42 -88 102 -215 134 -284 32 -69 91 -195 132 -280 41 -85 78 -165 82 -177 7
-22 12 -23 107 -23 l99 0 36 72 c20 40 62 129 94 198 32 69 80 172 108 230 88
186 162 342 162 346 0 1 36 78 81 171 44 92 114 242 156 333 42 91 79 168 82
172 3 4 7 -12 8 -35 2 -67 22 -404 54 -912 16 -259 29 -494 29 -522 l0 -53
110 0 110 0 0 38 c0 20 -7 147 -15 282 -8 135 -28 481 -45 770 -17 289 -36
615 -43 725 l-12 200 -105 0 -104 0 -59 -130 c-99 -218 -516 -1123 -568 -1234
-27 -57 -49 -105 -49 -107 0 -1 -20 -47 -45 -101 -25 -54 -53 -115 -63 -137
l-18 -38 -36 78 c-130 286 -452 990 -627 1369 l-138 300 -106 3 -107 3 0 -52z"/>
<path d="M4582 2684 c-49 -25 -86 -94 -80 -149 9 -77 72 -135 148 -135 117 0
195 118 142 217 -39 73 -137 104 -210 67z"/>
<path d="M9282 2150 c-239 -64 -415 -242 -486 -490 -52 -185 -40 -418 32 -586
80 -189 206 -315 387 -386 70 -27 95 -32 200 -36 67 -2 147 1 180 7 65 12 172
58 222 97 17 13 33 24 35 24 2 0 2 -20 0 -45 l-4 -45 251 0 251 0 0 705 c0
556 -3 706 -12 709 -7 2 -128 16 -268 31 -344 38 -679 45 -788 15z m528 -386
l45 -5 -2 -295 -2 -296 -43 -30 c-76 -56 -153 -81 -248 -82 -69 -1 -95 4 -138
23 -115 52 -182 173 -182 330 0 200 82 322 240 358 52 12 217 10 330 -3z"/>
<path d="M11095 2159 c-302 -60 -454 -221 -455 -481 0 -151 48 -248 164 -327
80 -55 281 -116 491 -151 72 -11 140 -42 158 -71 16 -26 0 -67 -33 -84 -43
-22 -170 -30 -275 -16 -108 15 -294 60 -388 95 -37 14 -67 24 -67 21 0 -3 -20
-84 -45 -182 -25 -97 -45 -180 -45 -184 0 -22 309 -102 462 -120 133 -15 402
-6 483 16 152 42 283 134 334 233 61 120 66 292 11 406 -68 143 -193 209 -519
276 -238 49 -255 58 -249 126 5 58 40 78 144 83 47 2 122 -2 167 -9 74 -11
319 -68 358 -84 13 -6 23 21 59 161 24 92 45 175 47 184 5 19 -78 45 -267 84
-100 21 -161 27 -305 30 -99 2 -202 0 -230 -6z"/>
<path d="M12528 2150 c-107 -22 -219 -75 -285 -134 -148 -133 -185 -406 -77
-564 85 -123 202 -172 614 -257 103 -21 140 -45 140 -88 0 -44 -23 -63 -90
-78 -113 -24 -338 8 -562 80 -54 18 -101 33 -104 34 -7 2 -93 -324 -94 -355 0
-19 94 -53 258 -92 152 -37 284 -49 466 -44 148 5 169 8 256 37 163 55 251
126 308 249 24 50 27 72 30 179 3 115 2 126 -22 180 -73 157 -190 223 -521
292 -203 42 -221 48 -245 78 -27 35 -25 57 8 94 27 30 34 32 111 37 45 3 123
-1 173 -8 81 -11 328 -67 368 -84 12 -5 18 5 28 46 12 57 65 261 76 294 5 17
-1 23 -46 37 -255 79 -595 108 -790 67z"/>
<path d="M3200 2089 c-268 -70 -472 -283 -519 -543 -14 -77 -14 -255 0 -332
47 -260 250 -474 516 -545 103 -28 316 -31 415 -6 215 53 386 184 478 366 103
206 100 516 -8 714 -97 177 -251 294 -456 347 -109 28 -319 27 -426 -1z m340
-183 c186 -40 322 -159 382 -335 32 -94 32 -276 1 -376 -44 -139 -131 -241
-257 -301 -83 -39 -151 -54 -251 -54 -103 0 -169 15 -253 56 -178 87 -276 260
-276 484 0 169 49 294 155 395 124 118 318 169 499 131z"/>
<path d="M5750 2100 c-292 -47 -491 -233 -556 -521 -25 -108 -23 -320 4 -420
69 -258 233 -429 470 -490 91 -23 275 -26 372 -5 77 17 193 64 262 106 26 17
50 30 53 30 3 0 5 -25 5 -55 l0 -55 105 0 105 0 -2 672 -3 673 -100 17 c-269
46 -593 68 -715 48z m520 -203 l85 -12 3 -447 2 -446 -57 -35 c-132 -79 -292
-127 -424 -127 -72 0 -186 27 -242 58 -181 98 -278 323 -247 575 28 235 153
390 356 442 69 17 381 13 524 -8z"/>
<path d="M4550 1256 c0 -487 -4 -824 -10 -855 -26 -140 -97 -202 -247 -216
l-71 -7 3 -31 c3 -18 7 -58 10 -89 l6 -58 72 0 c178 0 321 80 390 217 14 26
33 84 43 128 17 73 18 150 22 898 l3 817 -110 0 -111 0 0 -804z"/>
</g>
</svg>
